PathFileType	4	(X/Y/Z)	/Users/niels/Desktop/University/Third Semester/Perception and Action/Exam/Gymnastics Motion Tracking/Code for Gym Tracking/Analyzed Data/Webcam_Backflip/id1_5_trajectory_Sports2D/id1_5_trajectory_Sports2D_px_person00.trc
DataRate	CameraRate	NumFrames	NumMarkers	Units	OrigDataRate	OrigDataStartFrame	OrigNumFrames
29.87551867219917	29.87551867219917	11	22	m	29.87551867219917	210	241
Frame#	Time	Hip			RHip			RKnee			RAnkle			RBigToe			RSmallToe			RHeel			LHip			LKnee			LAnkle			LBigToe			LSmallToe			LHeel			Neck			Head			Nose			RShoulder			RElbow			RWrist			LShoulder			LElbow			LWrist		
		X1	Y1	Z1	X2	Y2	Z2	X3	Y3	Z3	X4	Y4	Z4	X5	Y5	Z5	X6	Y6	Z6	X7	Y7	Z7	X8	Y8	Z8	X9	Y9	Z9	X10	Y10	Z10	X11	Y11	Z11	X12	Y12	Z12	X13	Y13	Z13	X14	Y14	Z14	X15	Y15	Z15	X16	Y16	Z16	X17	Y17	Z17	X18	Y18	Z18	X19	Y19	Z19	X20	Y20	Z20	X21	Y21	Z21	X22	Y22	Z22
210	7.029166666666667	0.966418550311111	-0.5969669152654856	0.0	0.9470307773648264	-0.5943126830830942	0.0	0.9388886731361707	-0.7102011383452095	0.0	0.9292215173984033	-0.8264760797738859	0.0	0.9573153022216612	-0.8473887143179987	0.0	0.9450673093765442	-0.8477796927421553	0.0	0.9239314294526977	-0.8426589152631009	0.0	0.9864551412787734	-0.5942810416618807	0.0	0.9716537845990241	-0.7107118795410469	0.0	0.9546822520124941	-0.8187686835061223	0.0	0.996575752582787	-0.8400276599174751	0.0	0.9963945975543318	-0.8355270470655706	0.0	0.9481992856671639	-0.835517337830056	0.0	0.9646698634826879	-0.42191026254061015	0.0	0.9766604222231224	-0.34594405011608187	0.0	0.9824222024618883	-0.3932906318631747	0.0	0.9217258501826019	-0.44774429077802097	0.0	0.9061890369109047	-0.5239507466144834	0.0	0.9254433124691752	-0.6013234343013554	0.0	1.0012071946305185	-0.45051967226589623	0.0	1.0034615954586474	-0.5290381379349489	0.0	1.0190584586609268	-0.604315914111863	0.0
211	7.062638888888889	0.9666898961494622	-0.5971333020494821	0.0	0.94734831876375	-0.5946425171824413	0.0	0.9391816014570825	-0.7101477037605721	0.0	0.9295164599907489	-0.8264114026700053	0.0	0.9581684253327348	-0.8473452400755959	0.0	0.9458397439598736	-0.8478895694402316	0.0	0.923975000882836	-0.8426934105564884	0.0	0.9866609911555603	-0.5946033369896072	0.0	0.9717221550292682	-0.7104714488290679	0.0	0.9547916278275119	-0.818698250139061	0.0	0.9962491125406613	-0.8402733037770852	0.0	0.9961521476068559	-0.8355942487682237	0.0	0.9480390456935809	-0.8355954084424928	0.0	0.9649904776001367	-0.42191902773002443	0.0	0.9769267434550777	-0.346005688019141	0.0	0.9826953103240456	-0.39298843456770016	0.0	0.9220094858069443	-0.4477534158349664	0.0	0.9062707514591054	-0.5239462324791361	0.0	0.9253742912808103	-0.6012961529818209	0.0	1.0013264205117933	-0.45070901771315297	0.0	1.0037089747414651	-0.5292480904707307	0.0	1.0193888941470746	-0.6045145671890971	0.0
212	7.096111111111111	0.9669568734017929	-0.5970755481916724	0.0	0.9476722060727193	-0.5947653064845462	0.0	0.9394492440786657	-0.7100230638990533	0.0	0.9297936511630671	-0.8261955148950074	0.0	0.9585263622554436	-0.8471506806107354	0.0	0.9461215794104635	-0.8477865041605944	0.0	0.9240199621543294	-0.8426467800402166	0.0	0.9869558181783241	-0.5947180353325908	0.0	0.971843914907561	-0.7101859375101572	0.0	0.9550021344021138	-0.8184102561585115	0.0	0.9959826745250999	-0.840253467144046	0.0	0.9959467880985469	-0.8355072968721262	0.0	0.9480312710863329	-0.8355634764257851	0.0	0.9653862159627821	-0.42178477105561735	0.0	0.9772625529135884	-0.34589419727793613	0.0	0.982997179153541	-0.39243808678194114	0.0	0.9223837595990034	-0.4476450848108441	0.0	0.9063568347196382	-0.5237756371095906	0.0	0.9253038339547971	-0.6010591642763792	0.0	1.0014177904204933	-0.45073020256636026	0.0	1.0040028637493212	-0.5291886217923771	0.0	1.0197253457354534	-0.6044683700183522	0.0
213	7.129583333333334	0.9671864201555155	-0.5968333309790602	0.0	0.9479681936531154	-0.5946479105594992	0.0	0.9396557560411626	-0.7098553877041616	0.0	0.9300053454676841	-0.8258952157668734	0.0	0.9582361801543237	-0.8468501426581844	0.0	0.9458180651233278	-0.8475045719680294	0.0	0.9240673273390034	-0.8425489903031644	0.0	0.9873456983265652	-0.5945998898530946	0.0	0.9719786096614378	-0.7099039920221192	0.0	0.9552745050574345	-0.8179969589862026	0.0	0.9958129773618192	-0.8399671225233021	0.0	0.9958121681977061	-0.8352556361651573	0.0	0.9481972003281638	-0.8354078396783171	0.0	0.9658355751688028	-0.42150327718028385	0.0	0.9776870620223304	-0.3456244686393373	0.0	0.9833287287010029	-0.3918175614314313	0.0	0.9227671788059874	-0.447404582874114	0.0	0.9064726977623904	-0.5234336537129805	0.0	0.9252585304558468	-0.6006011889646783	0.0	1.0015403163353525	-0.45057522386713283	0.0	1.0043100922266113	-0.5288926263260905	0.0	1.0200810845141153	-0.6041813434390743	0.0
214	7.163055555555555	0.9673453584235053	-0.5964562171535643	0.0	0.948189736231759	-0.594270240196634	0.0	0.9397842975528437	-0.7096197949189861	0.0	0.9301198545452518	-0.8255665475258841	0.0	0.9574212112765862	-0.8464809770522409	0.0	0.9450883202737166	-0.8471060696017775	0.0	0.9241337861601494	-0.8423764899696837	0.0	0.9877459730995175	-0.5942443944910417	0.0	0.9720724451645181	-0.7095883750515073	0.0	0.9555366960250977	-0.8175650030562331	0.0	0.9957107063735992	-0.8394807426068311	0.0	0.9957247054949788	-0.8348711722694926	0.0	0.9484825001552522	-0.8351437330448391	0.0	0.9663015420491298	-0.42108456041782516	0.0	0.9781851459287321	-0.3452454730644898	0.0	0.9836996323115698	-0.3912979102531684	0.0	0.923097557339546	-0.44701922010996337	0.0	0.9066440608810175	-0.5229296134593105	0.0	0.9252295920065468	-0.5999319220203844	0.0	1.0017291839176785	-0.45026662328606387	0.0	1.0045998741380036	-0.5284010004746675	0.0	1.0204707540052342	-0.6036655772987634	0.0
215	7.196527777777778	0.9674207055222214	-0.5960033191079834	0.0	0.9482950070490019	-0.5936616497239272	0.0	0.9398448700501284	-0.7092764899826095	0.0	0.9301244501969516	-0.8252488655177114	0.0	0.9563448461428323	-0.8460800841140348	0.0	0.9441663514289604	-0.8466662343599748	0.0	0.924222274713991	-0.8420979530328626	0.0	0.9880421375079452	-0.5937029343230422	0.0	0.9720998097792353	-0.7091753421137027	0.0	0.9557109613684688	-0.8171877470902731	0.0	0.9956335657900157	-0.83892691153984	0.0	0.9956497665563392	-0.8344390524810134	0.0	0.9487800761727931	-0.8348106440312407	0.0	0.9667304906985009	-0.4205732897654092	0.0	0.9787157269182519	-0.34481343749074433	0.0	0.9841357405850445	-0.3909683110990538	0.0	0.9233387070786065	-0.446507738178652	0.0	0.9068627812720312	-0.5223039152375517	0.0	0.9251985639165676	-0.599107927586063	0.0	1.0019769583188687	-0.44987047987724255	0.0	1.0048706333245123	-0.5278065769525359	0.0	1.0208978510530886	-0.6029921277460483	0.0
216	7.23	0.967425856179021	-0.5955276892721494	0.0	0.9482912662669069	-0.5929230615768666	0.0	0.9398738820590383	-0.7088157971993863	0.0	0.9300258975210464	-0.8249365271210464	0.0	0.9552578558260564	-0.845652667880466	0.0	0.9432452735289073	-0.846208440631138	0.0	0.9242916671643033	-0.8417199434535216	0.0	0.9881767699817754	-0.593099056537304	0.0	0.9720838078543316	-0.7086359019900225	0.0	0.9557566923505962	-0.816871654481645	0.0	0.9955915080955045	-0.8384292649860795	0.0	0.9956036089388158	-0.8340607663432883	0.0	0.948986854774389	-0.8344361156126374	0.0	0.9670788246974714	-0.4200496656869456	0.0	0.9792538777009296	-0.34437508977438896	0.0	0.9846503091361363	-0.39080441968959173	0.0	0.9234958804334091	-0.4459269560170332	0.0	0.9070862895715311	-0.5216099044097409	0.0	0.9251619067561399	-0.5982167004639858	0.0	1.0022466030673594	-0.4494865139982639	0.0	1.0051455658734194	-0.5272489901575002	0.0	1.021373741261717	-0.6022836237770389	0.0
217	7.263472222222222	0.9673848453161416	-0.5950738899229034	0.0	0.9482470437879684	-0.5921938335828324	0.0	0.9399145277797564	-0.7082781324600964	0.0	0.9298417455328282	-0.8245768936175935	0.0	0.954277312177149	-0.8451514618398848	0.0	0.942421498162105	-0.8456889032827518	0.0	0.9242901216860261	-0.8412796413986162	0.0	0.9881758343050672	-0.5925815032373215	0.0	0.9720889158343976	-0.708009789255447	0.0	0.9556936558275779	-0.8165624224316702	0.0	0.995608996978348	-0.8380257871461045	0.0	0.9956146998535884	-0.833792948037391	0.0	0.9490632890357563	-0.8340173116140898	0.0	0.9673469549629331	-0.41960658373898674	0.0	0.9797891425975858	-0.34397517549605855	0.0	0.9852028754238205	-0.3907251117422213	0.0	0.9236179209406221	-0.44535523068108185	0.0	0.9072810137895632	-0.5208943104695838	0.0	0.9251286912556672	-0.5973658741684659	0.0	1.0025067993784613	-0.44920794819443943	0.0	1.005445411356018	-0.5268650854457929	0.0	1.02192002068034	-0.6016564283648834	0.0
218	7.296944444444445	0.9673089835354386	-0.5946918353093733	0.0	0.9482310984689067	-0.5915964753009543	0.0	0.9399882110092777	-0.7077447777719055	0.0	0.9295967525764842	-0.8241472312500044	0.0	0.9533872876115139	-0.8445725537122037	0.0	0.9416862903512688	-0.8451155261603903	0.0	0.9242173769673468	-0.8408356105099217	0.0	0.9881016430043167	-0.5922443421714519	0.0	0.9721796877730248	-0.70741018710014	0.0	0.9555719904666881	-0.8162228936911043	0.0	0.9956374527071624	-0.8376986607486767	0.0	0.9956365315830592	-0.8336368200455405	0.0	0.949033930389153	-0.8335508470083942	0.0	0.9675689117312822	-0.4193186336594108	0.0	0.9803001398732645	-0.3436703388985128	0.0	0.9857161181472612	-0.3906751121606825	0.0	0.9237638215367318	-0.44487217324470824	0.0	0.9074384963247933	-0.5202156561095634	0.0	0.9251069762971734	-0.5966755069449758	0.0	1.002755177960308	-0.44908309335986607	0.0	1.005770275566197	-0.5267395363206651	0.0	1.0225322495421267	-0.6011976397031916	0.0
219	7.330416666666666	0.9672074259242038	-0.5944375844631125	0.0	0.9482638109247477	-0.5912078835974817	0.0	0.9400884501469391	-0.7073024305297706	0.0	0.9293377245438463	-0.8237278927873553	0.0	0.952563222666168	-0.8440524811226657	0.0	0.9410035473026886	-0.844629316481869	0.0	0.9241269995430328	-0.8404772749556797	0.0	0.9879989907648724	-0.5920813113739296	0.0	0.9723648178707242	-0.7069831297023559	0.0	0.9554287513828673	-0.8158982173417785	0.0	0.9955799287731919	-0.8374554641479796	0.0	0.9955732437811412	-0.8335937555227523	0.0	0.9489391712138144	-0.8330795799180903	0.0	0.9677842506750021	-0.41921243643540407	0.0	0.9807743999282731	-0.34350774923237454	0.0	0.986151355311333	-0.3906308583588455	0.0	0.9239781524166716	-0.4445345900488538	0.0	0.907561005821096	-0.51965101389145	0.0	0.9251111905795308	-0.5962354161536417	0.0	1.002996398387066	-0.4491143612021638	0.0	1.0061064655476233	-0.5268691839330022	0.0	1.023162466180845	-0.6009756466446398	0.0
220	7.363888888888889	0.9671200867714705	-0.594340146129472	0.0	0.9483330009250751	-0.5910434509112366	0.0	0.9401988385828836	-0.7070126064230541	0.0	0.9291284626571948	-0.8234516914069959	0.0	0.9518759577999528	-0.8437733668394594	0.0	0.9404198977878326	-0.8444082412902372	0.0	0.9240709204873554	-0.8402806998996888	0.0	0.98789472013742	-0.5920031024573942	0.0	0.9725840866787351	-0.7068295578390759	0.0	0.9552872467521819	-0.815668042436306	0.0	0.9953948098701919	-0.8373423240360239	0.0	0.9953843939093818	-0.8336834042516346	0.0	0.9488161507007724	-0.8326901710516202	0.0	0.9680336951464951	-0.41925871504563683	0.0	0.9812329428464115	-0.3434966911177036	0.0	0.9865546250964846	-0.39056474859631535	0.0	0.9242871408550412	-0.4443539305007087	0.0	0.9076546624343325	-0.5192740718058647	0.0	0.9251729631336356	-0.5960522355617842	0.0	1.0032283775789912	-0.44928594079414785	0.0	1.006437550408225	-0.5271776632231858	0.0	1.0237589624303538	-0.601021236363688	0.0
